<svg width="157" height="142" viewBox="0 0 157 142" fill="none" xmlns="http://www.w3.org/2000/svg">
<path d="M78.296 140.135C117.845 140.135 149.906 109.112 149.906 70.8446C149.906 32.5767 117.845 1.55456 78.296 1.55456C38.7469 1.55456 6.68604 32.5767 6.68604 70.8446C6.68604 109.112 38.7469 140.135 78.296 140.135Z" fill="#ECE8F4"/>
<path d="M156.106 58.1046C156.866 63.4546 153.566 68.3946 149.176 70.6246C144.406 73.0446 137.576 71.6846 134.226 66.5646C130.446 60.7946 131.116 52.9146 131.156 45.8146C141.216 47.1446 154.536 47.0846 156.106 58.1046Z" fill="#C9B8D8"/>
<path d="M148.816 82.2946C159.236 83.4046 131.996 141.515 77.766 141.965C25.656 142.395 3.446 91.2746 7.056 82.7646C8.696 78.9046 11.036 80.9246 11.276 82.2146C16.976 112.825 47.496 137.295 76.536 137.455C107.096 137.615 139.176 115.865 145.706 85.2746C146.166 83.1446 147.556 82.1646 148.816 82.3046V82.2946Z" fill="#C9B8D8"/>
<path d="M136.926 33.1746C137.016 34.4946 134.226 37.1646 133.386 35.9246C121.446 18.3546 101.296 5.31456 81.006 4.71456C37.616 3.43456 25.496 37.9946 21.796 35.9546C19.346 34.6146 18.086 33.2546 19.806 30.7546C32.936 11.6646 53.956 0.484557 76.636 0.0145572C99.176 -0.455443 121.636 10.4846 134.946 28.6146C136.216 30.3346 136.836 31.9846 136.916 33.1746H136.926Z" fill="#C9B8D8"/>
<path d="M123.486 64.1346C126.586 90.3646 104.376 113.175 78.6061 113.445C52.0261 113.725 30.3161 91.1146 32.2061 64.1746L123.486 64.1346ZM117.396 68.4846L36.6361 68.5046C38.2061 89.4946 53.246 108.245 78.6261 108.975C103.746 108.245 117.846 89.6846 119.386 68.4846H117.396Z" fill="#C9B8D8"/>
<path d="M68.056 37.0646C69.0237 38.8358 66.8978 40.6618 65.206 39.5546C63.0778 38.1618 58.8761 32.1056 53.466 32.8946C42.0761 34.5556 45.9159 42.1514 41.956 42.3146C40.5759 42.3714 39.6726 40.8554 39.846 39.4846C40.6126 33.4254 47.0254 29.6806 52.836 28.8946C58.7054 28.1006 65.7837 32.9058 68.056 37.0646Z" fill="#C9B8D8"/>
<path d="M23.746 46.6246C26.026 48.2346 27.026 69.3646 14.086 71.7446C6.186 73.2046 -0.223998 66.2946 0.00600218 59.0846C0.456002 44.5046 23.966 46.7746 23.746 46.6246Z" fill="#C9B8D8"/>
<path d="M85.3209 36.8446C85.3232 36.8446 85.3246 36.8471 85.3235 36.849C84.3595 38.6176 86.4874 40.4436 88.1759 39.3446C90.3059 37.9546 94.5059 31.8946 99.9159 32.6846C111.306 34.3446 107.466 41.9446 111.426 42.1046C112.806 42.1646 113.706 40.6446 113.536 39.2746C112.766 33.2146 106.356 29.4746 100.536 28.6846C94.718 27.8948 87.5909 32.6912 85.3183 36.8403C85.3172 36.8422 85.3187 36.8446 85.3209 36.8446Z" fill="#C9B8D8"/>
</svg>
