<svg width="148" height="133" viewBox="0 0 148 133" fill="none" xmlns="http://www.w3.org/2000/svg">
<path d="M134.616 11.9364C144.546 22.6843 148.825 37.145 146.723 51.8447C142.205 83.3838 114.316 112.381 87.811 127.634C76.3583 134.216 69.99 133.839 58.6506 127.206C40.3136 116.483 24.6448 101.721 13.0158 83.8998C-1.31898 61.9131 -6.60486 33.9105 11.7321 12.8928C20.2524 3.11397 32.196 -1.10214 45.0583 0.244497C63.3198 2.17007 70.2669 12.9306 73.6272 12.9558C76.8994 12.9684 83.7962 2.37143 101.491 0.332595C114.127 -1.12731 125.932 2.56022 134.616 11.9364ZM7.91872 49.9947C11.6314 79.2684 38.5139 106.742 62.98 120.951C72.0666 126.237 75.8926 125.91 85.0296 120.511C108.325 106.755 132.754 81.7099 138.593 54.4625C141.148 42.5441 139.109 30.5754 132.061 20.7462C119.476 3.21466 96.6837 4.20891 81.5309 17.3103C76.5722 21.602 70.6697 21.5516 65.7236 17.2977C58.487 11.0931 49.9918 7.59438 40.4143 7.5818C18.1381 7.53146 5.32613 29.5811 7.91872 49.9947Z" fill="#C9B8D8"/>
<path d="M133.3 19.5371C140.451 29.5994 142.52 41.8519 139.928 54.0529C134.002 81.9465 109.216 107.585 85.5781 121.667C76.307 127.195 72.4249 127.529 63.2049 122.118C38.3798 107.572 11.1029 79.447 7.33574 49.4792C4.7051 28.5816 17.705 6.00907 40.3081 6.0606C50.0261 6.07349 58.646 9.65519 65.9888 16.0069C71.0074 20.3617 76.9966 20.4132 82.028 16.0198C97.4032 2.60773 120.53 1.58991 133.3 19.5371Z" fill="#ECE8F4"/>
</svg>
