<svg width="163" height="143" viewBox="0 0 163 143" fill="none" xmlns="http://www.w3.org/2000/svg">
<g clip-path="url(#clip0_17_23)">
<path d="M162.3 83.9V139.52C162.3 140.92 161.08 142.15 159.69 142.15L127.91 142.17C126.76 142.17 125.38 141.11 125.35 140L125.12 132.28L109.34 130.81C97.06 129.68 86.58 123.66 81.28 112.2C76.22 123.05 66.32 129.52 54.57 130.66L37.36 132.32L37.23 139.59C37.21 140.91 36.04 142.16 34.62 142.16L2.85 142.14C1.45 142.14 0.25 140.93 0.25 139.5V83.9C0.25 82.37 1.32 81.36 2.74 81.13L35.9 75.74L37.94 76.37C47.8 71.02 55.81 62 57.69 50.58L64.58 8.70999C65.23 4.76999 67.75 2.24999 70.85 0.889986C74.75 -0.800014 78.28 1.38999 81.25 2.95999C84 1.59999 87.55 -0.810014 91.38 0.779986C94.62 2.12999 97.29 4.65999 97.96 8.70999L104.85 50.58C106.73 62 114.73 71.02 124.59 76.37L126.69 75.75L160.13 81.2C161.35 81.4 162.29 82.62 162.29 83.9H162.3ZM157.14 137.01V85.85L129.25 81.32L130.31 137H157.14V137.01ZM125.06 127.2L124.16 81.92C111.46 75.61 101.88 64.44 99.56 50.34C99.56 50.32 99.56 50.3 99.56 50.28L92.84 9.02999C92.25 6.58999 90.21 5.24999 87.8 5.48999C85.81 5.67999 83.8 7.47999 83.8 9.95999V43.1C87.34 41.28 90.93 41.36 94.12 43.25C96.74 44.81 98.29 47.32 98.92 50.45C99.01 50.9 99.08 51.35 99.13 51.83C100.07 60.47 102.49 79.7 106.86 86.62C107.45 87.57 107.97 88.87 107.75 89.58C107.48 90.41 106.26 91.36 105.37 91.39C98.46 91.61 94.61 57.31 93.85 51.23C93.47 48.16 90.86 46.65 88.24 46.97C85.76 47.27 83.74 49.29 83.76 52.22L84 101.44C84.07 114.76 95.49 124.78 108.35 125.55L125.06 127.21V127.2ZM78.77 51.88C78.77 48.9 76.43 47.05 73.95 46.92C71.26 46.79 68.99 48.54 68.65 51.42C67.97 57.14 64.07 91.74 57.19 91.35C56.3 91.3 55.07 90.43 54.84 89.68C54.51 88.67 55.13 87.57 55.71 86.62C60.09 79.41 62.42 61.05 63.39 52.18C63.46 51.5 63.57 50.84 63.71 50.2C64.37 47.2 65.81 44.77 68.47 43.25C71.67 41.42 75.22 41.21 78.79 43.1L78.77 10.01C78.77 7.54999 76.79 5.68999 74.79 5.50999C72.45 5.30999 70.55 6.40999 69.78 8.72999L63.66 47.24C63.51 48.19 63.33 49.14 63.13 50.07C60.12 64.06 51.55 75.62 38.37 81.91L37.5 127.22L54.64 125.5C67.3 124.62 78.51 114.57 78.57 101.45L78.79 51.9L78.77 51.88ZM32.25 136.98L33.31 81.32L5.42 85.84V137.03L32.25 136.98Z" fill="#B1CDBE"/>
<path d="M157.13 85.85L157.14 137.01L130.31 137L129.25 81.32L157.13 85.85Z" fill="#E9F2E7"/>
<path d="M124.16 81.92L125.06 127.2L108.35 125.54C95.48 124.77 84.07 114.75 84 101.43L83.76 52.21C83.74 49.28 85.76 47.26 88.24 46.96C90.86 46.64 93.47 48.15 93.85 51.22C94.62 57.3 98.46 91.6 105.37 91.38C106.26 91.35 107.48 90.4 107.75 89.57C107.97 88.86 107.46 87.56 106.86 86.61C102.48 79.69 100.06 60.45 99.13 51.82C99.08 51.35 99.01 50.89 98.92 50.44L99.56 50.33C101.88 64.43 111.46 75.6 124.16 81.91V81.92Z" fill="#E9F2E7"/>
<path d="M99.55 50.28C99.55 50.28 99.55 50.32 99.55 50.34L98.91 50.45C98.28 47.31 96.73 44.8 94.11 43.25C90.92 41.36 87.32 41.28 83.78 43.1V9.95C83.78 7.47 85.8 5.67 87.79 5.48C90.19 5.24 92.23 6.59 92.83 9.02L99.55 50.27V50.28Z" fill="#E9F2E7"/>
<path d="M73.96 46.92C76.44 47.05 78.78 48.9 78.78 51.88L78.56 101.43C78.5 114.55 67.29 124.6 54.63 125.48L37.49 127.2L38.36 81.89C51.54 75.61 60.11 64.05 63.12 50.05L63.71 50.18C63.57 50.82 63.47 51.48 63.39 52.16C62.43 61.03 60.09 79.39 55.71 86.6C55.12 87.55 54.51 88.65 54.84 89.66C55.08 90.41 56.31 91.28 57.19 91.33C64.08 91.72 67.97 57.12 68.65 51.4C68.99 48.52 71.27 46.77 73.95 46.9L73.96 46.92Z" fill="#E9F2E7"/>
<path d="M78.75 9.99998L78.77 43.09C75.2 41.2 71.66 41.41 68.45 43.24C65.79 44.76 64.35 47.19 63.69 50.19L63.1 50.06C63.3 49.13 63.47 48.19 63.63 47.23L69.75 8.71998C70.52 6.39998 72.42 5.29998 74.76 5.49998C76.76 5.67998 78.74 7.53998 78.74 9.99998H78.75Z" fill="#E9F2E7"/>
<path d="M33.31 81.32L32.25 136.98L5.42004 137.03V85.85L33.31 81.32Z" fill="#E9F2E7"/>
</g>
<defs>
<clipPath id="clip0_17_23">
<rect width="162.55" height="142.42" fill="white"/>
</clipPath>
</defs>
</svg>
