<svg width="156" height="143" viewBox="0 0 156 143" fill="none" xmlns="http://www.w3.org/2000/svg">
<path d="M56.4184 114.081C56.1252 115.476 54.8059 116.342 53.7614 116.488C52.8452 116.615 51.0037 115.722 50.738 114.51L44.2697 84.5177C42.6939 77.2157 37.2059 71.7187 30.0779 69.6585L4.56207 62.2836C3.43515 61.9554 2.54645 60.5606 2.50064 59.5123C2.47315 58.6463 3.33437 57.0509 4.42464 56.741L29.968 49.357C37.1234 47.2876 42.6755 41.8727 44.2606 34.4886L50.6922 4.57873C50.9396 3.4301 52.5337 2.48203 53.4499 2.50026C54.6593 2.51849 56.1069 3.45745 56.4092 4.87044L62.4286 33.3035C64.151 41.4442 69.584 47.2603 77.6007 49.5575L102.42 56.6772C103.639 57.0236 104.5 58.4366 104.5 59.5214C104.5 60.6062 103.611 61.9463 102.393 62.3018L76.9044 69.6676C69.071 71.9284 64.0594 77.9724 62.4011 85.7849L56.4001 114.081H56.4184Z" fill="#F4EBDC" stroke="#E5CAA8" stroke-width="5" stroke-linecap="round" stroke-linejoin="round"/>
<path d="M113.448 138.367C113.199 139.556 112.037 140.491 111.087 140.5C110.22 140.5 108.845 139.602 108.652 138.667L104.787 120.117C104.039 116.515 100.848 113.946 97.4902 112.93L82.3164 108.329C81.5139 108.084 80.5914 106.968 80.5084 106.278C80.4069 105.343 81.2371 103.973 82.2518 103.664L97.6839 98.9999C102.158 97.6477 104.445 94.1538 105.312 89.8251L108.55 73.5445C108.735 72.6188 109.869 71.5933 110.635 71.5117C111.686 71.3937 113.144 72.1832 113.384 73.3267L117.147 91.4858C117.913 95.1703 120.929 97.9563 124.471 99.0271L139.608 103.619C140.567 103.91 141.471 105.008 141.499 105.87C141.536 107.013 140.604 108.075 139.433 108.429L124.545 112.93C121.196 113.937 118.014 116.515 117.276 120.09L113.467 138.386L113.448 138.367Z" fill="#F4EBDC" stroke="#E5CAA8" stroke-width="5" stroke-linecap="round" stroke-linejoin="round"/>
<path d="M135.362 57.282C135.262 57.7409 134.255 58.5595 133.792 58.4966C133.329 58.4336 132.703 57.6239 132.594 57.1381L130.417 47.5207C129.763 44.6239 127.186 41.8079 124.255 40.9173L115.535 38.2723C115.19 38.1643 114.528 37.4266 114.501 37.0667C114.474 36.6259 115.091 35.7352 115.526 35.6183L122.631 33.648C126.987 32.4425 129.899 29.5186 130.816 25.1193L132.522 16.9234C132.631 16.4106 133.339 15.5469 133.819 15.5019C134.3 15.457 135.262 16.2037 135.371 16.6895L137.295 25.6321C138.139 29.5546 140.961 32.3525 144.745 33.4411L152.476 35.6723C152.802 35.7712 153.383 36.419 153.483 36.7339C153.61 37.1297 153.002 38.1553 152.566 38.2813L145.289 40.3325C141.369 41.4391 138.22 44.0841 137.349 48.1415L135.38 57.282H135.362Z" fill="#F4EBDC" stroke="#E5CAA8" stroke-width="5" stroke-linecap="round" stroke-linejoin="round"/>
</svg>
